<?xml version="1.0" encoding="utf-8"?>
<!-- Generator: Adobe Illustrator 16.0.0, SVG Export Plug-In . SVG Version: 6.00 Build 0)  -->
<!DOCTYPE svg PUBLIC "-//W3C//DTD SVG 1.1//EN" "http://www.w3.org/Graphics/SVG/1.1/DTD/svg11.dtd">
<svg version="1.1" id="Layer_1" xmlns="http://www.w3.org/2000/svg" xmlns:xlink="http://www.w3.org/1999/xlink" x="0px" y="0px"
	 width="70px" height="70px" viewBox="0 0 70 70" enable-background="new 0 0 70 70" xml:space="preserve">
<g>
	<path fill="#282C37" d="M58.33,19.922c0,0.553-0.447,1-1,1H12.67c-0.553,0-1-0.447-1-1v-3.068c0-0.552,0.447-1,1-1h44.66
		c0.553,0,1,0.448,1,1V19.922z"/>
	<path fill="#282C37" d="M58.33,36.534c0,0.552-0.447,1-1,1H12.67c-0.553,0-1-0.448-1-1v-3.068c0-0.552,0.447-1,1-1h44.66
		c0.553,0,1,0.448,1,1V36.534z"/>
	<path fill="#282C37" d="M58.33,53.146c0,0.552-0.447,1-1,1H12.67c-0.553,0-1-0.448-1-1v-3.068c0-0.553,0.447-1,1-1h44.66
		c0.553,0,1,0.447,1,1V53.146z"/>
</g>
</svg>
